<svg width="302" height="20" viewBox="0 0 302 20" fill="none" xmlns="http://www.w3.org/2000/svg">
<path d="M10.5072 10.0693C10.7709 10.0693 10.9877 10.1602 11.1576 10.3418C11.3275 10.5176 11.4125 10.7314 11.4125 10.9834C11.4125 11.1064 11.3891 11.2266 11.3422 11.3438C11.2953 11.4609 11.2221 11.5635 11.1225 11.6514C10.6772 12.0498 10.1908 12.3486 9.66348 12.5479C9.13614 12.7412 8.56192 12.8379 7.94083 12.8379C6.59317 12.8379 5.44473 12.3604 4.49551 11.4053C3.54044 10.4502 3.0629 9.29883 3.0629 7.95117C3.0629 6.61523 3.54044 5.4668 4.49551 4.50586C4.96426 4.03125 5.48575 3.67383 6.05997 3.43359C6.64005 3.19336 7.267 3.07324 7.94083 3.07324C9.1713 3.07324 10.2318 3.46875 11.1225 4.25977C11.3334 4.44727 11.4389 4.67871 11.4389 4.9541C11.4389 5.21777 11.3539 5.4375 11.184 5.61328C11.0141 5.7832 10.7973 5.86816 10.5336 5.86816C10.4281 5.86816 10.3227 5.85352 10.2172 5.82422C10.1117 5.78906 10.0209 5.7334 9.94473 5.65723C9.6459 5.40527 9.33243 5.21484 9.0043 5.08594C8.68204 4.95703 8.32755 4.89258 7.94083 4.89258C7.51895 4.89258 7.12051 4.97461 6.74551 5.13867C6.37637 5.30273 6.05118 5.52539 5.76993 5.80664C5.49454 6.08203 5.27481 6.4043 5.11075 6.77344C4.95255 7.14258 4.87344 7.53516 4.87344 7.95117C4.87344 8.37305 4.95255 8.76855 5.11075 9.1377C5.27481 9.50684 5.49454 9.83203 5.76993 10.1133C6.04532 10.3887 6.36758 10.6084 6.73672 10.7725C7.11172 10.9307 7.51309 11.0098 7.94083 11.0098C8.32755 11.0098 8.68204 10.9482 9.0043 10.8252C9.33243 10.7021 9.64297 10.5146 9.93594 10.2627C10.0121 10.1924 10.0971 10.1455 10.1908 10.1221C10.2904 10.0928 10.3959 10.0752 10.5072 10.0693ZM14.9897 7.96875C14.9897 9.91992 14.3012 11.5781 12.9242 12.9434C11.5414 14.3145 9.88907 15 7.96719 15C6.99454 15 6.09219 14.8301 5.26016 14.4902C4.43399 14.1504 3.6752 13.6348 2.9838 12.9434C2.29239 12.2578 1.77676 11.502 1.43692 10.6758C1.10294 9.84375 0.935944 8.94141 0.935944 7.96875C0.935944 6.03516 1.61856 4.38281 2.9838 3.01172C4.34903 1.63477 6.01016 0.946289 7.96719 0.946289C9.91251 0.946289 11.5648 1.63477 12.9242 3.01172C14.3012 4.37109 14.9897 6.02344 14.9897 7.96875ZM7.94083 2.37012C6.39395 2.37012 5.07559 2.91504 3.98575 4.00488C2.8959 5.09473 2.35098 6.40723 2.35098 7.94238C2.35098 8.7334 2.48282 9.4541 2.74649 10.1045C3.01602 10.7549 3.42911 11.3555 3.98575 11.9062C5.06973 12.9902 6.38809 13.5322 7.94083 13.5322C8.71426 13.5322 9.42911 13.4004 10.0854 13.1367C10.7475 12.8672 11.3481 12.457 11.8871 11.9062C12.977 10.8047 13.5219 9.4834 13.5219 7.94238C13.5219 6.40723 12.977 5.09473 11.8871 4.00488C10.7973 2.91504 9.48184 2.37012 7.94083 2.37012ZM23.7959 2.80078V8.39062H25.5713C25.9522 8.39062 26.3096 8.31738 26.6436 8.1709C26.9834 8.02441 27.2793 7.8252 27.5313 7.57324C27.7891 7.32129 27.9913 7.02539 28.1377 6.68555C28.2901 6.3457 28.3663 5.98242 28.3663 5.5957C28.3663 5.20312 28.2901 4.83691 28.1377 4.49707C27.9913 4.15723 27.7891 3.86133 27.5313 3.60938C27.2793 3.35742 26.9834 3.16113 26.6436 3.02051C26.3038 2.87402 25.9463 2.80078 25.5713 2.80078H23.7959ZM21.9327 14.0684V1.86914C21.9327 1.74023 21.9561 1.62012 22.003 1.50879C22.0499 1.3916 22.1143 1.29199 22.1963 1.20996C22.2842 1.12207 22.3838 1.05469 22.4952 1.00781C22.6065 0.960938 22.7295 0.9375 22.8643 0.9375H25.5713C25.9932 0.9375 26.4004 0.993164 26.793 1.10449C27.1915 1.21582 27.5635 1.37402 27.9092 1.5791C28.2549 1.78418 28.5713 2.03027 28.8584 2.31738C29.1456 2.59863 29.3887 2.91211 29.5879 3.25781C29.793 3.60352 29.9512 3.97559 30.0625 4.37402C30.1797 4.7666 30.2383 5.17383 30.2383 5.5957C30.2383 6.87305 29.7784 7.97168 28.8584 8.8916C27.9502 9.7998 26.8545 10.2539 25.5713 10.2539H23.7959V14.0684C23.7959 14.3262 23.7051 14.5459 23.5235 14.7275C23.3418 14.9092 23.1221 15 22.8643 15C22.6065 15 22.3868 14.9092 22.2051 14.7275C22.0235 14.5459 21.9327 14.3262 21.9327 14.0684ZM33.4769 2.80078V7.71387H35.9379C36.2777 7.71387 36.597 7.64941 36.8959 7.52051C37.1947 7.3916 37.4525 7.21582 37.6693 6.99316C37.892 6.76465 38.0677 6.50391 38.1966 6.21094C38.3256 5.91211 38.39 5.5957 38.39 5.26172C38.39 4.92188 38.3256 4.60254 38.1966 4.30371C38.0677 4.00488 37.892 3.74414 37.6693 3.52148C37.4466 3.29883 37.1859 3.12305 36.8871 2.99414C36.5882 2.86523 36.2718 2.80078 35.9379 2.80078H33.4769ZM31.6136 14.0684V1.86914C31.6136 1.74023 31.6371 1.62012 31.684 1.50879C31.7308 1.3916 31.7953 1.29199 31.8773 1.20996C31.9652 1.12207 32.0648 1.05469 32.1761 1.00781C32.2875 0.960938 32.4105 0.9375 32.5453 0.9375H35.9379C36.5297 0.9375 37.0863 1.05176 37.6078 1.28027C38.1351 1.50879 38.5922 1.81934 38.9789 2.21191C39.3715 2.60449 39.682 3.06445 39.9105 3.5918C40.139 4.11328 40.2533 4.66992 40.2533 5.26172C40.2533 5.64844 40.2035 6.02637 40.1039 6.39551C40.0101 6.75879 39.8666 7.10449 39.6732 7.43262C39.4857 7.75488 39.2484 8.05664 38.9613 8.33789C38.68 8.61328 38.3519 8.85645 37.9769 9.06738L40.7806 13.5586C40.8802 13.7227 40.93 13.8926 40.93 14.0684C40.93 14.2031 40.9066 14.3262 40.8597 14.4375C40.8129 14.5488 40.7455 14.6484 40.6576 14.7363C40.5756 14.8184 40.4759 14.8828 40.3588 14.9297C40.2474 14.9766 40.1273 15 39.9984 15C39.6703 15 39.4037 14.8477 39.1986 14.543L36.0961 9.57715H33.4769V14.0684C33.4769 14.3262 33.3861 14.5459 33.2045 14.7275C33.0228 14.9092 32.8031 15 32.5453 15C32.2875 15 32.0677 14.9092 31.8861 14.7275C31.7045 14.5459 31.6136 14.3262 31.6136 14.0684ZM49.4157 2.80078C48.6891 2.80078 48.0241 2.92676 47.4206 3.17871C46.8229 3.43066 46.2692 3.81152 45.7595 4.32129C45.2497 4.83105 44.8688 5.38477 44.6169 5.98242C44.3708 6.58008 44.2477 7.24219 44.2477 7.96875C44.2477 9.39844 44.7516 10.6172 45.7595 11.625C46.7673 12.6328 47.986 13.1367 49.4157 13.1367C50.8454 13.1367 52.0641 12.6328 53.072 11.625C54.0798 10.6172 54.5837 9.39844 54.5837 7.96875C54.5837 6.54492 54.0798 5.3291 53.072 4.32129C52.0583 3.30762 50.8395 2.80078 49.4157 2.80078ZM56.447 7.96875C56.447 9.9082 55.7585 11.5664 54.3815 12.9434C53.0104 14.3145 51.3552 15 49.4157 15C47.4704 15 45.8122 14.3145 44.4411 12.9434C43.07 11.5723 42.3845 9.91406 42.3845 7.96875C42.3845 6.0293 43.07 4.37402 44.4411 3.00293C45.8181 1.62598 47.4763 0.9375 49.4157 0.9375C51.3493 0.9375 53.0046 1.62598 54.3815 3.00293C55.0729 3.69434 55.5886 4.4502 55.9284 5.27051C56.2741 6.09082 56.447 6.99023 56.447 7.96875ZM59.2109 1.56152L61.7158 10.5879L64.2119 1.57031C64.2588 1.38867 64.3643 1.23926 64.5283 1.12207C64.6982 0.999023 64.8916 0.9375 65.1084 0.9375C65.2959 0.9375 65.4717 0.993164 65.6357 1.10449C65.8057 1.20996 65.9229 1.3623 65.9873 1.56152L68.4922 10.5879L71.0059 1.56152C71.0469 1.43262 71.1201 1.31543 71.2256 1.20996C71.4072 1.02832 71.627 0.9375 71.8848 0.9375C72.1426 0.9375 72.3594 1.02832 72.5352 1.20996C72.7168 1.3916 72.8076 1.61133 72.8076 1.86914C72.8018 1.98633 72.7813 2.10937 72.7461 2.23828L69.4326 14.2441C69.3506 14.4727 69.2275 14.6572 69.0635 14.7979C68.8994 14.9326 68.709 15 68.4922 15C68.2285 15 68.0117 14.9062 67.8418 14.7188C67.7188 14.5898 67.625 14.4375 67.5606 14.2617L65.1084 5.37598L62.6563 14.2441C62.5742 14.4727 62.4512 14.6572 62.2871 14.7979C62.1231 14.9326 61.9326 15 61.7158 15C61.4522 15 61.2324 14.9062 61.0566 14.7188C60.9395 14.6016 60.8486 14.4492 60.7842 14.2617L57.4531 2.22949C57.418 2.09473 57.4004 1.97461 57.4004 1.86914C57.4004 1.61133 57.4912 1.3916 57.6729 1.20996C57.8545 1.02832 58.0742 0.9375 58.332 0.9375C58.5899 0.9375 58.8096 1.02832 58.9912 1.20996C59.0908 1.31543 59.1641 1.43262 59.2109 1.56152ZM83.4642 13.1367C83.722 13.1367 83.9417 13.2275 84.1234 13.4092C84.305 13.5908 84.3958 13.8105 84.3958 14.0684C84.3958 14.3262 84.305 14.5459 84.1234 14.7275C83.9417 14.9092 83.722 15 83.4642 15H75.3343C75.1995 15 75.0765 14.9766 74.9652 14.9297C74.8538 14.8828 74.7542 14.8184 74.6663 14.7363C74.5843 14.6484 74.5199 14.5488 74.473 14.4375C74.4261 14.3262 74.4027 14.2031 74.4027 14.0684V1.86914C74.4027 1.74023 74.4261 1.62012 74.473 1.50879C74.5199 1.3916 74.5843 1.29199 74.6663 1.20996C74.7542 1.12207 74.8538 1.05469 74.9652 1.00781C75.0765 0.960938 75.1995 0.9375 75.3343 0.9375H83.4642C83.722 0.9375 83.9417 1.02832 84.1234 1.20996C84.305 1.3916 84.3958 1.61133 84.3958 1.86914C84.3958 2.12695 84.305 2.34668 84.1234 2.52832C83.9417 2.70996 83.722 2.80078 83.4642 2.80078H76.2659V7.03711H81.4339C81.6917 7.03711 81.9115 7.12793 82.0931 7.30957C82.2747 7.49121 82.3656 7.71094 82.3656 7.96875C82.3656 8.22656 82.2747 8.44629 82.0931 8.62793C81.9115 8.80957 81.6917 8.90039 81.4339 8.90039H76.2659V13.1367H83.4642ZM87.6784 2.80078V6.36035H89.4625C89.7086 6.36035 89.9372 6.31348 90.1481 6.21973C90.3649 6.12598 90.5524 5.99707 90.7106 5.83301C90.8747 5.66895 91.0036 5.48145 91.0973 5.27051C91.1911 5.05371 91.2379 4.82227 91.2379 4.57617C91.2379 4.33594 91.1911 4.11035 91.0973 3.89941C91.0036 3.68262 90.8747 3.49219 90.7106 3.32812C90.5465 3.16406 90.3561 3.03516 90.1393 2.94141C89.9284 2.84766 89.7028 2.80078 89.4625 2.80078H87.6784ZM87.6784 8.22363V13.1367H90.1393C90.4791 13.1367 90.7985 13.0723 91.0973 12.9434C91.3961 12.8145 91.654 12.6387 91.8708 12.416C92.0934 12.1934 92.2692 11.9326 92.3981 11.6338C92.527 11.335 92.5915 11.0156 92.5915 10.6758C92.5915 10.3418 92.527 10.0254 92.3981 9.72656C92.2692 9.42773 92.0934 9.16699 91.8708 8.94434C91.6481 8.72168 91.3874 8.5459 91.0885 8.41699C90.7897 8.28809 90.4733 8.22363 90.1393 8.22363H87.6784ZM89.4625 0.9375C89.9606 0.9375 90.4293 1.03418 90.8688 1.22754C91.3141 1.41504 91.7008 1.67578 92.029 2.00977C92.3629 2.33789 92.6237 2.72461 92.8112 3.16992C93.0045 3.60938 93.1012 4.07812 93.1012 4.57617C93.1012 5.4668 92.8258 6.24316 92.275 6.90527C92.6325 7.11621 92.9459 7.35938 93.2155 7.63477C93.485 7.91016 93.7106 8.21191 93.8922 8.54004C94.0797 8.8623 94.2204 9.20508 94.3141 9.56836C94.4079 9.92578 94.4547 10.2949 94.4547 10.6758C94.4547 11.2676 94.3405 11.8271 94.112 12.3545C93.8834 12.876 93.5729 13.333 93.1803 13.7256C92.7936 14.1182 92.3366 14.4287 91.8092 14.6572C91.2877 14.8857 90.7311 15 90.1393 15H86.7467C86.6178 15 86.4977 14.9766 86.3864 14.9297C86.275 14.877 86.1754 14.8096 86.0875 14.7275C86.0055 14.6455 85.9381 14.5488 85.8854 14.4375C85.8385 14.3203 85.8151 14.1973 85.8151 14.0684V1.86914C85.8151 1.74023 85.8385 1.62012 85.8854 1.50879C85.9381 1.3916 86.0055 1.29199 86.0875 1.20996C86.1754 1.12793 86.275 1.06348 86.3864 1.0166C86.4977 0.963867 86.6178 0.9375 86.7467 0.9375H89.4625ZM98.2031 13.752C98.2031 14.0977 98.08 14.3936 97.834 14.6396C97.5937 14.8799 97.3008 15 96.955 15C96.6093 15 96.3134 14.8799 96.0674 14.6396C95.8271 14.3936 95.707 14.0977 95.707 13.752C95.707 13.4062 95.8271 13.1133 96.0674 12.873C96.3134 12.627 96.6093 12.5039 96.955 12.5039C97.3008 12.5039 97.5937 12.627 97.834 12.873C98.08 13.1133 98.2031 13.4062 98.2031 13.752ZM106.851 2.80078V6.36035H108.635C108.881 6.36035 109.11 6.31348 109.321 6.21973C109.538 6.12598 109.725 5.99707 109.883 5.83301C110.047 5.66895 110.176 5.48145 110.27 5.27051C110.364 5.05371 110.411 4.82227 110.411 4.57617C110.411 4.33594 110.364 4.11035 110.27 3.89941C110.176 3.68262 110.047 3.49219 109.883 3.32812C109.719 3.16406 109.529 3.03516 109.312 2.94141C109.101 2.84766 108.876 2.80078 108.635 2.80078H106.851ZM106.851 8.22363V13.1367H109.312C109.652 13.1367 109.971 13.0723 110.27 12.9434C110.569 12.8145 110.827 12.6387 111.044 12.416C111.266 12.1934 111.442 11.9326 111.571 11.6338C111.7 11.335 111.764 11.0156 111.764 10.6758C111.764 10.3418 111.7 10.0254 111.571 9.72656C111.442 9.42773 111.266 9.16699 111.044 8.94434C110.821 8.72168 110.56 8.5459 110.261 8.41699C109.963 8.28809 109.646 8.22363 109.312 8.22363H106.851ZM108.635 0.9375C109.133 0.9375 109.602 1.03418 110.042 1.22754C110.487 1.41504 110.874 1.67578 111.202 2.00977C111.536 2.33789 111.796 2.72461 111.984 3.16992C112.177 3.60938 112.274 4.07812 112.274 4.57617C112.274 5.4668 111.999 6.24316 111.448 6.90527C111.805 7.11621 112.119 7.35938 112.388 7.63477C112.658 7.91016 112.883 8.21191 113.065 8.54004C113.253 8.8623 113.393 9.20508 113.487 9.56836C113.581 9.92578 113.628 10.2949 113.628 10.6758C113.628 11.2676 113.513 11.8271 113.285 12.3545C113.056 12.876 112.746 13.333 112.353 13.7256C111.966 14.1182 111.509 14.4287 110.982 14.6572C110.461 14.8857 109.904 15 109.312 15H105.92C105.791 15 105.671 14.9766 105.559 14.9297C105.448 14.877 105.348 14.8096 105.26 14.7275C105.178 14.6455 105.111 14.5488 105.058 14.4375C105.011 14.3203 104.988 14.1973 104.988 14.0684V1.86914C104.988 1.74023 105.011 1.62012 105.058 1.50879C105.111 1.3916 105.178 1.29199 105.26 1.20996C105.348 1.12793 105.448 1.06348 105.559 1.0166C105.671 0.963867 105.791 0.9375 105.92 0.9375H108.635ZM129.087 15H128.78C128.656 15 128.539 14.9766 128.428 14.9297C128.317 14.8828 128.22 14.8184 128.138 14.7363C128.056 14.6543 127.989 14.5576 127.936 14.4463C127.889 14.335 127.865 14.2178 127.865 14.0947C127.461 14.4111 127.033 14.6426 126.582 14.7891C126.131 14.9297 125.642 15 125.115 15C124.488 15 123.896 14.8799 123.339 14.6396C122.782 14.3936 122.296 14.0625 121.88 13.6465C121.464 13.2305 121.133 12.7441 120.887 12.1875C120.647 11.6309 120.527 11.0391 120.527 10.4121V6.07031C120.527 5.94727 120.55 5.83008 120.597 5.71875C120.644 5.60742 120.708 5.51074 120.79 5.42871C120.872 5.34082 120.969 5.27344 121.08 5.22656C121.192 5.17969 121.312 5.15625 121.441 5.15625C121.57 5.15625 121.69 5.17969 121.801 5.22656C121.912 5.27344 122.009 5.34082 122.091 5.42871C122.173 5.51074 122.238 5.60742 122.284 5.71875C122.337 5.83008 122.364 5.94727 122.364 6.07031V10.4121C122.364 10.793 122.434 11.1504 122.574 11.4844C122.721 11.8184 122.917 12.1113 123.163 12.3633C123.415 12.6094 123.708 12.8057 124.042 12.9521C124.376 13.0928 124.734 13.1631 125.115 13.1631C125.49 13.1631 125.844 13.0928 126.178 12.9521C126.512 12.8057 126.805 12.6064 127.057 12.3545C127.309 12.1025 127.505 11.8125 127.646 11.4844C127.792 11.1504 127.865 10.793 127.865 10.4121V6.07031C127.865 5.94727 127.889 5.83008 127.936 5.71875C127.983 5.60742 128.047 5.51074 128.129 5.42871C128.217 5.34082 128.317 5.27344 128.428 5.22656C128.539 5.17969 128.656 5.15625 128.78 5.15625C128.908 5.15625 129.029 5.17969 129.14 5.22656C129.251 5.27344 129.348 5.34082 129.43 5.42871C129.512 5.51074 129.576 5.60742 129.623 5.71875C129.676 5.83008 129.702 5.94727 129.702 6.07031V13.1631H130.133C130.262 13.1631 130.382 13.1865 130.493 13.2334C130.611 13.2803 130.71 13.3477 130.792 13.4355C130.88 13.5176 130.948 13.6172 130.994 13.7344C131.041 13.8457 131.065 13.9658 131.065 14.0947C131.065 15.208 130.842 16.2217 130.397 17.1357C130.321 17.3174 130.2 17.4609 130.036 17.5664C129.878 17.6777 129.705 17.7334 129.518 17.7334C129.389 17.7334 129.269 17.707 129.157 17.6543C129.046 17.6074 128.947 17.543 128.859 17.4609C128.777 17.3789 128.709 17.2793 128.656 17.1621C128.61 17.0508 128.586 16.9307 128.586 16.8018C128.586 16.6494 128.624 16.5029 128.7 16.3623C128.917 15.9229 129.046 15.4688 129.087 15ZM140.535 9.16406C140.435 8.8418 140.286 8.54883 140.086 8.28516C139.893 8.01562 139.665 7.78711 139.401 7.59961C139.143 7.40625 138.856 7.25684 138.54 7.15137C138.229 7.0459 137.907 6.99316 137.573 6.99316C137.239 6.99316 136.914 7.0459 136.597 7.15137C136.281 7.25684 135.991 7.40625 135.727 7.59961C135.463 7.78711 135.235 8.01562 135.042 8.28516C134.848 8.54883 134.705 8.8418 134.611 9.16406H140.535ZM140.139 12.2314C140.403 12.2314 140.62 12.3193 140.79 12.4951C140.965 12.665 141.053 12.8818 141.053 13.1455C141.053 13.4033 140.965 13.623 140.79 13.8047C139.881 14.6016 138.809 15 137.573 15C136.213 15 135.053 14.5195 134.092 13.5586C133.131 12.5977 132.651 11.4375 132.651 10.0781C132.651 8.71875 133.131 7.55859 134.092 6.59766C135.053 5.63672 136.213 5.15625 137.573 5.15625C138.92 5.15625 140.081 5.63672 141.053 6.59766C141.534 7.07227 141.894 7.60254 142.134 8.18848C142.375 8.76855 142.495 9.39844 142.495 10.0781C142.495 10.3418 142.404 10.5615 142.222 10.7373C142.046 10.9072 141.83 10.9922 141.572 10.9922H134.611C134.711 11.3145 134.857 11.6104 135.05 11.8799C135.244 12.1436 135.469 12.3721 135.727 12.5654C135.991 12.7529 136.278 12.8994 136.588 13.0049C136.905 13.1104 137.233 13.1631 137.573 13.1631C137.96 13.1631 138.314 13.1045 138.636 12.9873C138.959 12.8701 139.257 12.6943 139.533 12.46C139.709 12.3135 139.911 12.2373 140.139 12.2314ZM148.66 5.17383C148.273 5.17383 148.004 5.33789 147.851 5.66602L144.142 13.7344C144.096 13.8574 144.072 13.9805 144.072 14.1035C144.072 14.2207 144.096 14.335 144.142 14.4463C144.189 14.5576 144.254 14.6572 144.336 14.7451C144.418 14.8271 144.515 14.8916 144.626 14.9385C144.737 14.9854 144.857 15.0088 144.986 15.0088C145.144 15.0088 145.297 14.9707 145.443 14.8945C145.59 14.8125 145.704 14.6982 145.786 14.5518L148.66 8.29395L151.525 14.543C151.695 14.8535 151.962 15.0088 152.325 15.0088C152.454 15.0088 152.574 14.9854 152.685 14.9385C152.797 14.8916 152.893 14.8271 152.975 14.7451C153.058 14.6572 153.122 14.5576 153.169 14.4463C153.222 14.335 153.248 14.2207 153.248 14.1035C153.248 13.9688 153.222 13.8457 153.169 13.7344L149.469 5.66602C149.305 5.33789 149.035 5.17383 148.66 5.17383ZM160.442 9.16406V6.99316H158.025C157.866 6.99316 157.72 7.02539 157.585 7.08984C157.45 7.14844 157.333 7.23047 157.234 7.33594C157.14 7.43555 157.067 7.5498 157.014 7.67871C156.961 7.80762 156.935 7.93945 156.935 8.07422C156.935 8.2207 156.961 8.36133 157.014 8.49609C157.072 8.625 157.152 8.73926 157.251 8.83887C157.351 8.93848 157.465 9.01758 157.594 9.07617C157.729 9.13477 157.872 9.16406 158.025 9.16406H160.442ZM161.356 5.15625C161.485 5.15625 161.605 5.17969 161.716 5.22656C161.827 5.27344 161.924 5.34082 162.006 5.42871C162.088 5.51074 162.153 5.60742 162.199 5.71875C162.252 5.83008 162.279 5.94727 162.279 6.07031V14.0859C162.279 14.209 162.252 14.3262 162.199 14.4375C162.153 14.5488 162.088 14.6484 162.006 14.7363C161.924 14.8184 161.827 14.8828 161.716 14.9297C161.605 14.9766 161.485 15 161.356 15C161.233 15 161.115 14.9766 161.004 14.9297C160.893 14.8828 160.793 14.8184 160.705 14.7363C160.623 14.6484 160.559 14.5488 160.512 14.4375C160.465 14.3262 160.442 14.209 160.442 14.0859V10.9922H158.693C158.277 10.9922 157.951 11.1943 157.717 11.5986L156.188 14.4463C155.994 14.8154 155.716 15 155.353 15C155.224 15 155.104 14.9766 154.992 14.9297C154.881 14.8828 154.784 14.8184 154.702 14.7363C154.62 14.6484 154.556 14.5488 154.509 14.4375C154.462 14.3262 154.439 14.209 154.439 14.0859C154.439 13.9043 154.483 13.7432 154.571 13.6025L156.091 10.7285C156.144 10.623 156.205 10.5234 156.276 10.4297C156.082 10.2539 155.912 10.0781 155.766 9.90234C155.619 9.72656 155.496 9.54492 155.397 9.35742C155.303 9.16992 155.23 8.9707 155.177 8.75977C155.13 8.54883 155.107 8.32031 155.107 8.07422C155.107 7.66992 155.183 7.29199 155.335 6.94043C155.493 6.58301 155.704 6.27246 155.968 6.00879C156.232 5.74512 156.539 5.53711 156.891 5.38477C157.248 5.23242 157.626 5.15625 158.025 5.15625H161.356ZM166.818 10.0693L163.97 6.67676C163.83 6.51855 163.759 6.31641 163.759 6.07031C163.759 5.94727 163.783 5.83008 163.83 5.71875C163.876 5.60742 163.941 5.51074 164.023 5.42871C164.105 5.34082 164.202 5.27344 164.313 5.22656C164.424 5.17969 164.544 5.15625 164.673 5.15625C164.949 5.15625 165.177 5.25586 165.359 5.45508L168.013 8.62793L170.668 5.45508C170.843 5.25586 171.069 5.15625 171.344 5.15625C171.473 5.15625 171.593 5.17969 171.705 5.22656C171.816 5.27344 171.913 5.34082 171.995 5.42871C172.077 5.51074 172.141 5.60742 172.188 5.71875C172.241 5.83008 172.267 5.94727 172.267 6.07031C172.267 6.29297 172.194 6.49512 172.047 6.67676L169.2 10.0693L172.074 13.5146C172.203 13.6611 172.267 13.8516 172.267 14.0859C172.267 14.209 172.241 14.3262 172.188 14.4375C172.141 14.5488 172.077 14.6484 171.995 14.7363C171.913 14.8184 171.816 14.8828 171.705 14.9297C171.593 14.9766 171.473 15 171.344 15C171.092 15 170.873 14.9062 170.685 14.7188L168.013 11.502L165.324 14.7188C165.148 14.9062 164.931 15 164.673 15C164.544 15 164.424 14.9766 164.313 14.9297C164.202 14.8828 164.105 14.8184 164.023 14.7363C163.941 14.6484 163.876 14.5488 163.83 14.4375C163.783 14.3262 163.759 14.209 163.759 14.0859C163.759 13.8574 163.821 13.667 163.944 13.5146L166.818 10.0693ZM189.098 10.0781C189.098 11.4492 188.617 12.6094 187.656 13.5586C186.684 14.5195 185.524 15 184.176 15C182.817 15 181.656 14.5195 180.695 13.5586C179.735 12.5977 179.254 11.4375 179.254 10.0781C179.254 8.71875 179.735 7.55859 180.695 6.59766C181.656 5.63672 182.817 5.15625 184.176 5.15625C185.524 5.15625 186.684 5.63672 187.656 6.59766C188.137 7.07812 188.494 7.6084 188.729 8.18848C188.969 8.76855 189.092 9.39844 189.098 10.0781ZM184.176 6.99316C183.742 6.99316 183.338 7.0752 182.963 7.23926C182.588 7.40332 182.263 7.62598 181.987 7.90723C181.712 8.18262 181.492 8.50781 181.328 8.88281C181.17 9.25781 181.091 9.65625 181.091 10.0781C181.091 10.5 181.17 10.8984 181.328 11.2734C181.492 11.6484 181.712 11.9766 181.987 12.2578C182.263 12.5332 182.588 12.7529 182.963 12.917C183.338 13.0811 183.742 13.1631 184.176 13.1631C184.604 13.1631 185.005 13.0811 185.38 12.917C185.755 12.7529 186.08 12.5303 186.356 12.249C186.637 11.9678 186.857 11.6426 187.015 11.2734C187.179 10.8984 187.261 10.5 187.261 10.0781C187.261 9.65625 187.179 9.26074 187.015 8.8916C186.857 8.5166 186.637 8.18848 186.356 7.90723C186.08 7.62598 185.755 7.40332 185.38 7.23926C185.005 7.0752 184.604 6.99316 184.176 6.99316ZM198.691 10.0781C198.691 9.65625 198.609 9.26074 198.445 8.8916C198.287 8.5166 198.067 8.18848 197.786 7.90723C197.51 7.62598 197.185 7.40332 196.81 7.23926C196.435 7.0752 196.034 6.99316 195.606 6.99316C195.172 6.99316 194.768 7.0752 194.393 7.23926C194.018 7.40332 193.693 7.62598 193.417 7.90723C193.142 8.18262 192.922 8.50781 192.758 8.88281C192.6 9.25781 192.521 9.65625 192.521 10.0781C192.521 10.5 192.6 10.8984 192.758 11.2734C192.922 11.6484 193.142 11.9766 193.417 12.2578C193.693 12.5332 194.018 12.7529 194.393 12.917C194.768 13.0811 195.172 13.1631 195.606 13.1631C196.034 13.1631 196.435 13.0811 196.81 12.917C197.185 12.7529 197.51 12.5303 197.786 12.249C198.067 11.9678 198.287 11.6426 198.445 11.2734C198.609 10.8984 198.691 10.5 198.691 10.0781ZM193.417 4.55859C192.949 5.02734 192.662 5.57812 192.556 6.21094C193.423 5.50781 194.44 5.15625 195.606 5.15625C196.954 5.15625 198.114 5.63672 199.086 6.59766C199.567 7.07227 199.927 7.60254 200.167 8.18848C200.408 8.76855 200.528 9.39844 200.528 10.0781C200.528 11.4492 200.047 12.6094 199.086 13.5586C198.114 14.5195 196.954 15 195.606 15C194.247 15 193.086 14.5195 192.125 13.5586C191.165 12.5977 190.684 11.4375 190.684 10.0781V6.73828C190.684 6.06445 190.813 5.43164 191.071 4.83984C191.334 4.24219 191.689 3.7207 192.134 3.27539C192.585 2.82422 193.107 2.46973 193.699 2.21191C194.296 1.94824 194.932 1.81641 195.606 1.81641H195.984C196.921 1.81641 197.771 1.62598 198.533 1.24512C198.662 1.18066 198.796 1.14844 198.937 1.14844C199.066 1.14844 199.186 1.1748 199.297 1.22754C199.409 1.27441 199.505 1.33887 199.587 1.4209C199.669 1.50293 199.734 1.59961 199.781 1.71094C199.833 1.82227 199.86 1.94238 199.86 2.07129C199.86 2.26465 199.798 2.4375 199.675 2.58984C199.552 2.73633 199.385 2.86816 199.174 2.98535C198.969 3.10254 198.732 3.20508 198.462 3.29297C198.199 3.375 197.923 3.44238 197.636 3.49512C197.349 3.54785 197.062 3.58887 196.775 3.61816C196.494 3.6416 196.23 3.65332 195.984 3.65332H195.606C194.745 3.65332 194.015 3.95508 193.417 4.55859ZM205.348 14.0859L202.184 6.4834C202.126 6.34863 202.096 6.21094 202.096 6.07031C202.096 5.94727 202.12 5.83008 202.167 5.71875C202.214 5.60742 202.278 5.51074 202.36 5.42871C202.442 5.34082 202.539 5.27344 202.65 5.22656C202.762 5.17969 202.882 5.15625 203.011 5.15625C203.192 5.15625 203.362 5.20898 203.52 5.31445C203.679 5.41406 203.799 5.56348 203.881 5.7627L206.35 11.6602L208.82 5.74512C208.89 5.56934 208.99 5.42871 209.119 5.32324C209.254 5.21191 209.441 5.15625 209.681 5.15625C209.81 5.15625 209.93 5.17969 210.042 5.22656C210.153 5.27344 210.25 5.34082 210.332 5.42871C210.414 5.51074 210.478 5.60742 210.525 5.71875C210.578 5.83008 210.604 5.94727 210.604 6.07031C210.604 6.19922 210.572 6.33691 210.508 6.4834L205.454 18.6035C205.378 18.7852 205.261 18.9316 205.102 19.043C204.944 19.1602 204.771 19.2188 204.584 19.2188C204.32 19.2188 204.1 19.1309 203.925 18.9551C203.755 18.7793 203.67 18.5596 203.67 18.2959C203.67 18.1553 203.699 18.0205 203.758 17.8916L205.348 14.0859ZM212.111 6.07031C212.111 5.94727 212.135 5.83008 212.182 5.71875C212.229 5.60742 212.293 5.51074 212.375 5.42871C212.457 5.34082 212.554 5.27344 212.665 5.22656C212.776 5.17969 212.897 5.15625 213.026 5.15625C213.154 5.15625 213.275 5.17969 213.386 5.22656C213.497 5.27344 213.594 5.34082 213.676 5.42871C213.758 5.51074 213.822 5.60742 213.869 5.71875C213.916 5.83008 213.94 5.94727 213.94 6.07031V8.07422C213.94 8.35547 213.992 8.625 214.098 8.88281C214.209 9.13477 214.359 9.35449 214.546 9.54199C214.734 9.72949 214.953 9.87891 215.205 9.99023C215.463 10.1016 215.738 10.1572 216.031 10.1572C216.318 10.1572 216.588 10.1045 216.84 9.99902C217.092 9.8877 217.312 9.73828 217.499 9.55078C217.693 9.36328 217.842 9.14355 217.947 8.8916C218.059 8.63965 218.114 8.37012 218.114 8.08301V6.07031C218.114 5.94727 218.138 5.83008 218.185 5.71875C218.232 5.60742 218.296 5.51074 218.378 5.42871C218.466 5.34082 218.566 5.27344 218.677 5.22656C218.788 5.17969 218.905 5.15625 219.028 5.15625C219.157 5.15625 219.277 5.17969 219.389 5.22656C219.5 5.27344 219.597 5.34082 219.679 5.42871C219.761 5.51074 219.825 5.60742 219.872 5.71875C219.925 5.83008 219.951 5.94727 219.951 6.07031V14.0859C219.951 14.209 219.925 14.3262 219.872 14.4375C219.825 14.5488 219.761 14.6484 219.679 14.7363C219.597 14.8184 219.5 14.8828 219.389 14.9297C219.277 14.9766 219.157 15 219.028 15C218.905 15 218.788 14.9766 218.677 14.9297C218.566 14.8828 218.466 14.8184 218.378 14.7363C218.296 14.6484 218.232 14.5488 218.185 14.4375C218.138 14.3262 218.114 14.209 218.114 14.0859V11.4053C217.511 11.7979 216.817 11.9941 216.031 11.9941C215.492 11.9941 214.985 11.8916 214.511 11.6865C214.036 11.4756 213.62 11.1943 213.263 10.8428C212.911 10.4854 212.63 10.0693 212.419 9.59473C212.214 9.12012 212.111 8.61328 212.111 8.07422V6.07031ZM229.342 9.16406C229.243 8.8418 229.093 8.54883 228.894 8.28516C228.701 8.01562 228.472 7.78711 228.208 7.59961C227.951 7.40625 227.664 7.25684 227.347 7.15137C227.037 7.0459 226.714 6.99316 226.38 6.99316C226.046 6.99316 225.721 7.0459 225.405 7.15137C225.088 7.25684 224.798 7.40625 224.535 7.59961C224.271 7.78711 224.042 8.01562 223.849 8.28516C223.656 8.54883 223.512 8.8418 223.418 9.16406H229.342ZM228.947 12.2314C229.21 12.2314 229.427 12.3193 229.597 12.4951C229.773 12.665 229.861 12.8818 229.861 13.1455C229.861 13.4033 229.773 13.623 229.597 13.8047C228.689 14.6016 227.617 15 226.38 15C225.021 15 223.861 14.5195 222.9 13.5586C221.939 12.5977 221.458 11.4375 221.458 10.0781C221.458 8.71875 221.939 7.55859 222.9 6.59766C223.861 5.63672 225.021 5.15625 226.38 5.15625C227.728 5.15625 228.888 5.63672 229.861 6.59766C230.341 7.07227 230.702 7.60254 230.942 8.18848C231.182 8.76855 231.302 9.39844 231.302 10.0781C231.302 10.3418 231.211 10.5615 231.03 10.7373C230.854 10.9072 230.637 10.9922 230.379 10.9922H223.418C223.518 11.3145 223.665 11.6104 223.858 11.8799C224.051 12.1436 224.277 12.3721 224.535 12.5654C224.798 12.7529 225.085 12.8994 225.396 13.0049C225.712 13.1104 226.04 13.1631 226.38 13.1631C226.767 13.1631 227.122 13.1045 227.444 12.9873C227.766 12.8701 228.065 12.6943 228.34 12.46C228.516 12.3135 228.718 12.2373 228.947 12.2314ZM234.699 10.9922V14.0859C234.699 14.209 234.676 14.3262 234.629 14.4375C234.582 14.5488 234.514 14.6484 234.427 14.7363C234.344 14.8184 234.248 14.8828 234.136 14.9297C234.025 14.9766 233.908 15 233.785 15C233.656 15 233.536 14.9766 233.425 14.9297C233.313 14.8828 233.214 14.8184 233.126 14.7363C233.044 14.6484 232.979 14.5488 232.932 14.4375C232.885 14.3262 232.862 14.209 232.862 14.0859V6.07031C232.862 5.94727 232.885 5.83008 232.932 5.71875C232.979 5.60742 233.044 5.51074 233.126 5.42871C233.214 5.34082 233.313 5.27344 233.425 5.22656C233.536 5.17969 233.656 5.15625 233.785 5.15625C233.908 5.15625 234.025 5.17969 234.136 5.22656C234.248 5.27344 234.344 5.34082 234.427 5.42871C234.514 5.51074 234.582 5.60742 234.629 5.71875C234.676 5.83008 234.699 5.94727 234.699 6.07031V9.16406H239.208V6.07031C239.208 5.94727 239.231 5.83008 239.278 5.71875C239.325 5.60742 239.389 5.51074 239.471 5.42871C239.553 5.34082 239.65 5.27344 239.761 5.22656C239.873 5.17969 239.993 5.15625 240.122 5.15625C240.251 5.15625 240.371 5.17969 240.482 5.22656C240.594 5.27344 240.69 5.34082 240.772 5.42871C240.854 5.51074 240.919 5.60742 240.966 5.71875C241.012 5.83008 241.036 5.94727 241.036 6.07031V14.0859C241.036 14.209 241.012 14.3262 240.966 14.4375C240.919 14.5488 240.854 14.6484 240.772 14.7363C240.69 14.8184 240.594 14.8828 240.482 14.9297C240.371 14.9766 240.251 15 240.122 15C239.993 15 239.873 14.9766 239.761 14.9297C239.65 14.8828 239.553 14.8184 239.471 14.7363C239.389 14.6484 239.325 14.5488 239.278 14.4375C239.231 14.3262 239.208 14.209 239.208 14.0859V10.9922H234.699ZM250.805 15C250.541 15 250.324 14.9121 250.154 14.7363C249.984 14.5605 249.897 14.3467 249.891 14.0947C249.486 14.4111 249.059 14.6426 248.608 14.7891C248.156 14.9297 247.667 15 247.14 15C246.513 15 245.921 14.8799 245.364 14.6396C244.808 14.3936 244.321 14.0625 243.905 13.6465C243.489 13.2305 243.158 12.7441 242.912 12.1875C242.672 11.6309 242.552 11.0391 242.552 10.4121V6.07031C242.552 5.81836 242.64 5.60449 242.816 5.42871C242.997 5.24707 243.217 5.15625 243.475 5.15625C243.727 5.15625 243.941 5.24707 244.116 5.42871C244.298 5.60449 244.389 5.81836 244.389 6.07031V10.4121C244.389 10.793 244.459 11.1504 244.6 11.4844C244.746 11.8184 244.942 12.1113 245.189 12.3633C245.441 12.6094 245.733 12.8057 246.067 12.9521C246.401 13.0928 246.759 13.1631 247.14 13.1631C247.515 13.1631 247.869 13.0928 248.203 12.9521C248.537 12.8057 248.83 12.6064 249.082 12.3545C249.334 12.1025 249.53 11.8125 249.671 11.4844C249.817 11.1504 249.891 10.793 249.891 10.4121V6.07031C249.891 5.81836 249.979 5.60449 250.154 5.42871C250.336 5.24707 250.556 5.15625 250.814 5.15625C251.066 5.15625 251.279 5.24707 251.455 5.42871C251.637 5.60449 251.728 5.81836 251.728 6.07031V14.0859C251.728 14.3379 251.637 14.5547 251.455 14.7363C251.279 14.9121 251.063 15 250.805 15ZM258.921 9.16406V6.99316H256.504C256.346 6.99316 256.2 7.02539 256.065 7.08984C255.93 7.14844 255.813 7.23047 255.713 7.33594C255.62 7.43555 255.546 7.5498 255.494 7.67871C255.441 7.80762 255.414 7.93945 255.414 8.07422C255.414 8.2207 255.441 8.36133 255.494 8.49609C255.552 8.625 255.631 8.73926 255.731 8.83887C255.83 8.93848 255.945 9.01758 256.074 9.07617C256.208 9.13477 256.352 9.16406 256.504 9.16406H258.921ZM259.835 5.15625C259.964 5.15625 260.084 5.17969 260.196 5.22656C260.307 5.27344 260.404 5.34082 260.486 5.42871C260.568 5.51074 260.632 5.60742 260.679 5.71875C260.732 5.83008 260.758 5.94727 260.758 6.07031V14.0859C260.758 14.209 260.732 14.3262 260.679 14.4375C260.632 14.5488 260.568 14.6484 260.486 14.7363C260.404 14.8184 260.307 14.8828 260.196 14.9297C260.084 14.9766 259.964 15 259.835 15C259.712 15 259.595 14.9766 259.484 14.9297C259.372 14.8828 259.273 14.8184 259.185 14.7363C259.103 14.6484 259.038 14.5488 258.992 14.4375C258.945 14.3262 258.921 14.209 258.921 14.0859V10.9922H257.172C256.756 10.9922 256.431 11.1943 256.197 11.5986L254.667 14.4463C254.474 14.8154 254.196 15 253.832 15C253.704 15 253.583 14.9766 253.472 14.9297C253.361 14.8828 253.264 14.8184 253.182 14.7363C253.1 14.6484 253.036 14.5488 252.989 14.4375C252.942 14.3262 252.918 14.209 252.918 14.0859C252.918 13.9043 252.962 13.7432 253.05 13.6025L254.571 10.7285C254.623 10.623 254.685 10.5234 254.755 10.4297C254.562 10.2539 254.392 10.0781 254.246 9.90234C254.099 9.72656 253.976 9.54492 253.876 9.35742C253.783 9.16992 253.709 8.9707 253.657 8.75977C253.61 8.54883 253.586 8.32031 253.586 8.07422C253.586 7.66992 253.663 7.29199 253.815 6.94043C253.973 6.58301 254.184 6.27246 254.448 6.00879C254.711 5.74512 255.019 5.53711 255.371 5.38477C255.728 5.23242 256.106 5.15625 256.504 5.15625H259.835ZM267.692 5.2002C267.692 4.61426 267.804 4.06348 268.026 3.54785C268.255 3.03223 268.563 2.58105 268.949 2.19434C269.336 1.80762 269.787 1.50293 270.303 1.28027C270.818 1.05762 271.366 0.946289 271.946 0.946289C272.526 0.946289 273.074 1.06055 273.59 1.28906C274.105 1.51758 274.557 1.8252 274.943 2.21191C275.33 2.59863 275.635 3.0498 275.857 3.56543C276.086 4.08105 276.2 4.62598 276.2 5.2002C276.2 5.78613 276.092 6.33105 275.875 6.83496C275.664 7.33887 275.356 7.7959 274.952 8.20605L270.681 13.1631H275.277C275.535 13.1631 275.752 13.2539 275.928 13.4355C276.109 13.6172 276.2 13.834 276.2 14.0859C276.2 14.3379 276.109 14.5547 275.928 14.7363C275.752 14.9121 275.535 15 275.277 15H268.606C268.478 15 268.357 14.9766 268.246 14.9297C268.135 14.8828 268.038 14.8184 267.956 14.7363C267.874 14.6484 267.81 14.5488 267.763 14.4375C267.716 14.3262 267.692 14.209 267.692 14.0859C267.692 13.8223 267.777 13.6055 267.947 13.4355L273.643 6.93164C274.123 6.45117 274.363 5.87402 274.363 5.2002C274.363 4.87207 274.299 4.56152 274.17 4.26855C274.041 3.97559 273.865 3.7207 273.643 3.50391C273.426 3.28125 273.171 3.10547 272.878 2.97656C272.585 2.84766 272.274 2.7832 271.946 2.7832C271.612 2.7832 271.299 2.84766 271.006 2.97656C270.713 3.09961 270.455 3.26953 270.232 3.48633C270.016 3.70313 269.843 3.95801 269.714 4.25098C269.591 4.54395 269.529 4.86035 269.529 5.2002C269.529 5.45215 269.439 5.66895 269.257 5.85059C269.081 6.02637 268.864 6.11426 268.606 6.11426C268.355 6.11426 268.138 6.02637 267.956 5.85059C267.78 5.66895 267.692 5.45215 267.692 5.2002ZM277.716 7.95996C277.716 6.85254 277.813 5.86523 278.006 4.99805C278.2 4.125 278.478 3.38672 278.841 2.7832C279.204 2.17969 279.653 1.71973 280.186 1.40332C280.719 1.08105 281.328 0.919922 282.014 0.919922C282.7 0.919922 283.309 1.08398 283.842 1.41211C284.375 1.73438 284.824 2.2002 285.187 2.80957C285.556 3.41309 285.834 4.15137 286.022 5.02441C286.215 5.8916 286.312 6.87012 286.312 7.95996C286.312 9.0498 286.215 10.0312 286.022 10.9043C285.834 11.7715 285.556 12.5098 285.187 13.1191C284.824 13.7227 284.375 14.1885 283.842 14.5166C283.309 14.8389 282.7 15 282.014 15C281.328 15 280.719 14.8418 280.186 14.5254C279.653 14.2031 279.204 13.7432 278.841 13.1455C278.478 12.542 278.2 11.8037 278.006 10.9307C277.813 10.0576 277.716 9.06738 277.716 7.95996ZM282.014 2.7832C281.604 2.7832 281.244 2.91504 280.933 3.17871C280.628 3.44238 280.373 3.80273 280.168 4.25977C279.969 4.7168 279.82 5.26465 279.72 5.90332C279.62 6.53613 279.571 7.22168 279.571 7.95996C279.571 8.70996 279.62 9.4043 279.72 10.043C279.82 10.6758 279.972 11.2207 280.177 11.6777C280.382 12.1348 280.637 12.4922 280.942 12.75C281.246 13.0078 281.604 13.1367 282.014 13.1367C282.43 13.1367 282.79 13.0049 283.095 12.7412C283.406 12.4775 283.661 12.1172 283.86 11.6602C284.059 11.1973 284.208 10.6494 284.308 10.0166C284.408 9.38379 284.457 8.69824 284.457 7.95996C284.457 7.22754 284.405 6.54492 284.299 5.91211C284.2 5.2793 284.05 4.73145 283.851 4.26855C283.652 3.80566 283.397 3.44238 283.086 3.17871C282.782 2.91504 282.424 2.7832 282.014 2.7832ZM287.74 5.2002C287.74 4.61426 287.851 4.06348 288.074 3.54785C288.302 3.03223 288.61 2.58105 288.997 2.19434C289.383 1.80762 289.835 1.50293 290.35 1.28027C290.866 1.05762 291.414 0.946289 291.994 0.946289C292.574 0.946289 293.122 1.06055 293.637 1.28906C294.153 1.51758 294.604 1.8252 294.991 2.21191C295.378 2.59863 295.682 3.0498 295.905 3.56543C296.133 4.08105 296.248 4.62598 296.248 5.2002C296.248 5.78613 296.139 6.33105 295.923 6.83496C295.712 7.33887 295.404 7.7959 295 8.20605L290.728 13.1631H295.325C295.583 13.1631 295.799 13.2539 295.975 13.4355C296.157 13.6172 296.248 13.834 296.248 14.0859C296.248 14.3379 296.157 14.5547 295.975 14.7363C295.799 14.9121 295.583 15 295.325 15H288.654C288.525 15 288.405 14.9766 288.294 14.9297C288.182 14.8828 288.086 14.8184 288.004 14.7363C287.922 14.6484 287.857 14.5488 287.81 14.4375C287.763 14.3262 287.74 14.209 287.74 14.0859C287.74 13.8223 287.825 13.6055 287.995 13.4355L293.69 6.93164C294.171 6.45117 294.411 5.87402 294.411 5.2002C294.411 4.87207 294.346 4.56152 294.217 4.26855C294.089 3.97559 293.913 3.7207 293.69 3.50391C293.473 3.28125 293.218 3.10547 292.925 2.97656C292.633 2.84766 292.322 2.7832 291.994 2.7832C291.66 2.7832 291.346 2.84766 291.053 2.97656C290.76 3.09961 290.503 3.26953 290.28 3.48633C290.063 3.70313 289.89 3.95801 289.761 4.25098C289.638 4.54395 289.577 4.86035 289.577 5.2002C289.577 5.45215 289.486 5.66895 289.304 5.85059C289.129 6.02637 288.912 6.11426 288.654 6.11426C288.402 6.11426 288.185 6.02637 288.004 5.85059C287.828 5.66895 287.74 5.45215 287.74 5.2002ZM299.609 14.0859V3.14355C299.434 3.20215 299.249 3.26953 299.056 3.3457C298.862 3.41602 298.687 3.45117 298.528 3.45117C298.265 3.45117 298.045 3.36621 297.869 3.19629C297.699 3.02051 297.614 2.80078 297.614 2.53711C297.614 2.34961 297.661 2.18262 297.755 2.03613C297.854 1.88965 298.004 1.76953 298.203 1.67578L300.216 1.00781C300.321 0.966797 300.427 0.946289 300.532 0.946289C300.796 0.946289 301.013 1.03711 301.183 1.21875C301.358 1.39453 301.446 1.61133 301.446 1.86914V14.0859C301.446 14.3379 301.355 14.5547 301.174 14.7363C300.998 14.9121 300.781 15 300.523 15C300.271 15 300.055 14.9121 299.873 14.7363C299.697 14.5547 299.609 14.3379 299.609 14.0859Z" fill="white"/>
</svg>
